<svg width="31" height="22" viewBox="0 0 31 22" fill="none" xmlns="http://www.w3.org/2000/svg">
<g clip-path="url(#clip0_208_5152)">
<path d="M26.6667 0H4C1.79086 0 0 1.79086 0 4V18C0 20.2091 1.79086 22 4 22H26.6667C28.8758 22 30.6667 20.2091 30.6667 18V4C30.6667 1.79086 28.8758 0 26.6667 0Z" fill="white"/>
<path fill-rule="evenodd" clip-rule="evenodd" d="M8.72739 7.64795C8.46993 7.97055 8.05813 8.22495 7.64626 8.18861C7.59479 7.75248 7.79639 7.28908 8.03239 7.00281C8.28979 6.67115 8.74026 6.43492 9.10486 6.41675C9.14779 6.87108 8.98046 7.31635 8.72739 7.64795ZM9.10059 8.27495C8.73773 8.25282 8.40666 8.39048 8.13926 8.50168C7.96719 8.57328 7.82146 8.63388 7.71059 8.63388C7.58619 8.63388 7.43446 8.57002 7.26406 8.49835C7.04079 8.40442 6.7856 8.29708 6.51795 8.30222C5.90447 8.31128 5.33389 8.67928 5.02072 9.26535C4.37721 10.4375 4.85341 12.1731 5.47547 13.1271C5.78006 13.5997 6.14471 14.1176 6.6252 14.0994C6.83659 14.0909 6.98865 14.0226 7.14599 13.9519C7.32719 13.8705 7.51539 13.7859 7.80926 13.7859C8.09293 13.7859 8.27293 13.8683 8.44566 13.9473C8.60993 14.0225 8.76773 14.0947 9.00193 14.0903C9.49953 14.0813 9.81273 13.6178 10.1173 13.1453C10.446 12.6382 10.5905 12.1433 10.6124 12.0681L10.6149 12.0595C10.6145 12.0589 10.6104 12.0569 10.6032 12.0535C10.4933 12.0002 9.65346 11.593 9.64539 10.5011C9.63733 9.58468 10.3115 9.12035 10.4177 9.04721C10.4242 9.04275 10.4285 9.03975 10.4305 9.03822C10.0015 8.36582 9.33226 8.29315 9.10059 8.27495ZM12.5455 14.0403V6.95741H15.0552C16.3508 6.95741 17.256 7.90242 17.256 9.28355C17.256 10.6647 16.3337 11.6188 15.0209 11.6188H13.5837V14.0403H12.5455ZM13.5836 7.88421H14.7805C15.6815 7.88421 16.1963 8.39308 16.1963 9.28808C16.1963 10.1831 15.6815 10.6965 14.7763 10.6965H13.5836V7.88421ZM20.6838 13.1907C20.4093 13.7451 19.8043 14.0949 19.1523 14.0949C18.187 14.0949 17.5135 13.4861 17.5135 12.5683C17.5135 11.6597 18.1655 11.1372 19.3711 11.0599L20.6667 10.9782V10.5875C20.6667 10.0105 20.3106 9.69701 19.6757 9.69701C19.1523 9.69701 18.7705 9.98321 18.6932 10.4193H17.758C17.788 9.50161 18.6031 8.83375 19.7057 8.83375C20.894 8.83375 21.6662 9.49255 21.6662 10.5148V14.0403H20.7053V13.1907H20.6838ZM19.4311 13.2543C18.8776 13.2543 18.5259 12.9727 18.5259 12.5411C18.5259 12.0958 18.8647 11.8369 19.5125 11.796L20.6666 11.7187V12.1185C20.6666 12.7819 20.1346 13.2543 19.4311 13.2543ZM24.8537 14.3175C24.4376 15.5578 23.9614 15.9667 22.9489 15.9667C22.8717 15.9667 22.6143 15.9576 22.5543 15.9395V15.0899C22.6186 15.0989 22.7773 15.108 22.8588 15.108C23.3179 15.108 23.5753 14.9036 23.734 14.372L23.8284 14.0585L22.0695 8.90195H23.1549L24.3775 13.0863H24.3989L25.6216 8.90195H26.677L24.8537 14.3175Z" fill="#270E24"/>
</g>
<defs>
<clipPath id="clip0_208_5152">
<rect width="30.6667" height="22" fill="white" transform="translate(0.333496)"/>
</clipPath>
</defs>
</svg>
