<svg width="1527" height="572" viewBox="0 0 1527 572" fill="none" xmlns="http://www.w3.org/2000/svg">
<g clip-path="url(#clip0_339_2397)">
<path d="M1555 92.8586C1555 110.859 1544.05 125.931 1529.36 129.788V572H-0.841134V135.971C-5.26796 122.06 -5.16172 107.845 -0.937261 95.2783C-28.2571 91.2202 -49 71.6172 -49 48.0275C-49.0202 21.5048 -22.783 0 9.58089 0C41.9448 0 68.182 21.5048 68.182 48.0275C68.1829 50.4562 67.9596 52.881 67.5142 55.2776C90.4578 58.0768 112.926 71.385 126.581 92.622C127.33 93.7887 128.041 94.9628 128.716 96.1444C129.906 96.0819 131.105 96.0506 132.313 96.0506C153.147 96.0506 171.436 104.979 181.823 118.372C185.743 115.035 190.097 112.119 194.794 109.685C232.385 90.1978 283.108 105.899 308.091 144.748C308.212 144.935 308.334 145.123 308.445 145.315C312.821 144.482 317.285 144.065 321.761 144.069C346.232 144.069 367.198 156.364 375.971 173.829C381.675 166.72 389.023 160.758 397.528 156.337C435.108 136.855 485.837 152.551 510.819 191.405C511.472 192.427 512.11 193.454 512.712 194.49C513.918 194.027 515.154 193.629 516.415 193.298C531.223 189.418 546.811 195.307 555.74 206.918C559.318 204.021 563.234 201.467 567.422 199.298C600.57 182.114 643.938 192.298 670.848 221.593C676.456 219.166 682.618 217.904 688.864 217.905C699.554 217.905 709.364 221.561 717.064 227.664C717.975 226.405 718.924 225.158 719.913 223.923C748.953 187.762 800.739 176.632 835.941 198.892C842.614 186.186 854.761 177.69 868.639 177.69C879.982 177.69 890.176 183.369 897.163 192.387C908.238 183.342 922.216 177.945 937.424 177.945C955.081 177.945 971.083 185.217 982.795 197.025C985.361 175.73 1001.3 159.337 1020.58 159.337C1027.8 159.337 1034.57 161.641 1040.31 165.645C1053.97 141.591 1079.23 125.439 1108.15 125.439C1125.42 125.439 1141.38 131.194 1154.35 140.944C1162.61 131.368 1174.08 125.439 1186.73 125.439C1198.19 125.439 1208.66 130.292 1216.67 138.301C1227.36 118.533 1245.88 104.903 1267.26 103.082C1267.09 100.894 1267.01 98.6756 1267.01 96.439C1267.01 55.1169 1296.23 21.6209 1332.27 21.6209C1350.72 21.6209 1367.38 30.3978 1379.25 44.5141C1384.75 39.831 1391.57 37.0541 1398.95 37.0541C1407.59 37.0541 1415.44 40.8489 1421.32 47.0588C1430.92 40.6971 1442.05 37.0541 1453.95 37.0541C1473.32 37.0541 1490.72 46.7329 1502.67 62.0992C1508.1 57.6348 1514.76 54.9785 1521.95 54.9785C1540.2 54.9785 1555 71.9431 1555 92.8586Z" fill="#6372DE"/>
</g>
<defs>
<clipPath id="clip0_339_2397">
<rect width="1527" height="572" fill="white"/>
</clipPath>
</defs>
</svg>
