<svg width="30" height="30" viewBox="0 0 30 30" fill="none" xmlns="http://www.w3.org/2000/svg">
<path fill-rule="evenodd" clip-rule="evenodd" d="M23.8234 12.1621C24.1482 13.0947 24.3244 14.0936 24.3244 15.1323C24.3244 20.2055 20.1217 24.3243 14.945 24.3243C10.2584 24.3243 6.37025 20.9485 5.67578 16.5455C7.04244 17.8577 8.91365 18.6677 10.9767 18.6677C11.0991 18.6677 11.2202 18.6647 11.341 18.6593C12.6193 19.5077 14.161 20.0033 15.8196 20.0033C20.2362 20.0033 23.8219 16.49 23.8234 12.1621Z" fill="#6372DE"/>
<path fill-rule="evenodd" clip-rule="evenodd" d="M7.02815 18.3648C8.3523 21.4241 11.4004 23.567 14.9445 23.567C17.3175 23.567 19.4679 22.6061 21.0276 21.0529C21.3344 20.7476 21.8311 20.7487 22.1361 21.0551C22.4415 21.3615 22.4404 21.8583 22.134 22.1636C20.2907 23.9997 17.7491 25.135 14.9445 25.135C9.85264 25.135 5.62837 21.3919 4.87403 16.5103C4.8223 16.1767 4.99017 15.8475 5.29046 15.6934C5.59074 15.5389 5.95616 15.5942 6.19747 15.8309C7.42611 17.0353 9.10952 17.7784 10.9648 17.7784C14.7252 17.7784 17.7784 14.7252 17.7784 10.9648C17.7784 9.10951 17.0353 7.4261 15.8309 6.19746C15.5943 5.95615 15.5389 5.59074 15.6934 5.29046C15.8475 4.99017 16.1767 4.8223 16.5103 4.87403C21.3919 5.62837 25.135 9.85263 25.135 14.9445C25.135 16.5222 24.7754 18.0168 24.134 19.3507C23.9465 19.7407 23.478 19.905 23.088 19.7176C22.698 19.5302 22.5337 19.0613 22.7212 18.6716C23.2635 17.5432 23.567 16.2791 23.567 14.9445C23.567 11.4004 21.4241 8.35229 18.3648 7.02814C18.9911 8.20214 19.3464 9.54221 19.3464 10.9648C19.3464 15.5906 15.5906 19.3464 10.9648 19.3464C9.54222 19.3464 8.20216 18.9911 7.02815 18.3648Z" fill="#000128"/>
</svg>
