<svg width="21" height="20" viewBox="0 0 21 20" fill="none" xmlns="http://www.w3.org/2000/svg">
<path fill-rule="evenodd" clip-rule="evenodd" d="M6.89062 17C7.71905 17 8.39062 17.6716 8.39062 18.5C8.39062 19.3284 7.71905 20 6.89062 20C6.0622 20 5.39062 19.3284 5.39062 18.5C5.39062 17.6716 6.0622 17 6.89062 17ZM15.8906 17C16.7191 17 17.3906 17.6716 17.3906 18.5C17.3906 19.3284 16.7191 20 15.8906 20C15.0622 20 14.3906 19.3284 14.3906 18.5C14.3906 17.6716 15.0622 17 15.8906 17ZM1.39062 0H3.39062C3.84623 0 4.23893 0.30684 4.35568 0.737739L4.379 0.847943L4.86393 4H19.3906C19.9904 4 20.4455 4.52068 20.3857 5.10035L20.3668 5.21693L18.7148 12.6508C18.4231 13.9637 17.2965 14.9143 15.9686 14.9945L15.7863 15H7.10646C5.68498 15 4.4676 14.0044 4.17328 12.6299L4.14135 12.4562L2.53271 2H1.39062C0.83834 2 0.390625 1.55228 0.390625 1C0.390625 0.487164 0.776665 0.0644928 1.274 0.00672773L1.39062 0H3.39062H1.39062ZM18.144 6H5.17162L6.11809 12.1521C6.18737 12.6024 6.55035 12.9438 6.994 12.9937L7.10646 13H15.7863C16.2159 13 16.5927 12.7265 16.7309 12.3285L16.7625 12.2169L18.144 6Z" fill="white"/>
</svg>
