<svg width="185" height="31" viewBox="0 0 185 31" fill="none" xmlns="http://www.w3.org/2000/svg">
<g clip-path="url(#clip0_329_2185)">
<path d="M9.30084 7.13892L10.5941 6.011C10.4523 5.92889 10.4168 5.89863 10.4055 5.90584C9.6128 6.36392 9.28382 6.37833 8.61309 5.76178C7.05326 4.33567 5.2623 3.33307 3.32385 2.54078C2.44326 2.18209 1.62222 1.63758 0.825291 1.1089C0.492055 0.889945 0.270843 0.495242 0 0.181208L0.0921719 0.0501247C0.199138 0.0226727 0.308273 0.00483813 0.418317 -0.00317383C3.16645 0.0155529 5.91601 -0.0305427 8.65989 0.0789369C11.6151 0.1985 14.4015 1.00807 16.8986 2.67187C19.763 4.58345 21.5412 7.29738 22.3665 10.6408C23.2641 14.2681 23.2344 17.9083 22.073 21.4735C20.6053 25.9781 17.4814 28.7727 13.07 30.157C11.2995 30.7011 9.46027 30.9797 7.61055 30.9839C5.23252 31.0055 2.85307 30.9839 0.475039 30.9839C0.360179 30.9839 0.245319 30.9637 0.0864997 30.9493C0.0889395 30.7432 0.14659 30.5416 0.253264 30.3662C0.359939 30.1909 0.511609 30.0483 0.691997 29.9539C1.36414 29.5909 2.04905 29.1789 2.77791 29.0132C4.05414 28.7251 5.36865 28.6085 6.66756 28.4169C7.80198 28.2512 8.85558 27.8997 9.76311 27.1751C10.38 26.6825 10.7089 26.0746 10.5898 25.2175C10.5473 24.9164 10.7444 24.5174 10.9486 24.2566C11.5016 23.5522 11.5257 23.5724 11.1145 22.7887C11.3754 22.564 11.6463 22.3407 11.9072 22.1045C12.1681 21.8682 12.2418 21.5873 11.9568 21.2949C11.8769 21.205 11.8043 21.1087 11.7398 21.0068C11.4137 20.5415 11.4562 20.3687 11.9369 20.082C12.8544 19.5375 12.9934 18.6415 12.2844 17.842C12.0249 17.5539 11.7682 17.2658 11.5186 16.969C10.7657 16.0759 10.5927 15.0488 10.8692 13.931C11.1826 12.659 11.33 11.3611 10.916 10.1107C10.6423 9.28818 10.1403 8.54056 9.72624 7.767C9.59497 7.55048 9.45299 7.34085 9.30084 7.13892ZM11.7115 8.11992C12.1539 8.40802 12.5183 8.59961 12.8388 8.85459C12.9977 8.99113 13.105 9.17955 13.1423 9.38758C13.2047 9.79381 13.1962 10.2116 13.2245 10.7546C13.6258 10.4176 13.9335 10.1784 14.2271 9.90761C14.3111 9.81384 14.4216 9.74881 14.5435 9.72147C14.6654 9.69412 14.7926 9.70581 14.9077 9.75491C15.2764 9.88168 15.6593 9.96667 16.1556 10.1021C15.9826 9.64831 15.872 9.29682 15.7174 8.96838C15.6365 8.83499 15.6006 8.67844 15.6152 8.52247C15.6298 8.3665 15.6941 8.2196 15.7982 8.10407C16.0294 7.81597 16.208 7.47888 16.4647 7.07554C15.9613 7.10723 15.594 7.11155 15.231 7.15909C15.0868 7.18704 14.9375 7.16879 14.8039 7.10686C14.6703 7.04493 14.5589 6.94238 14.4851 6.81337C14.2724 6.50222 14.0186 6.21844 13.7109 5.83238C13.5861 6.33656 13.484 6.71109 13.4046 7.08851C13.3895 7.22187 13.3347 7.34737 13.2476 7.44827C13.1604 7.54917 13.045 7.62066 12.9168 7.65319C12.5439 7.76411 12.1865 7.93265 11.7129 8.11992H11.7115ZM19.2582 15.4334C19.3731 14.9134 19.3589 14.4683 19.5645 14.1888C19.7701 13.9094 20.1927 13.8057 20.6536 13.5507C19.7092 13.3116 19.244 12.7973 19.2993 11.8221C18.7548 12.5841 18.0912 12.7944 17.1978 12.4256C17.4205 12.9169 17.7041 13.2683 17.7026 13.6169C17.7012 13.9656 17.4091 14.2969 17.246 14.6368L17.2716 14.7564C18.1125 14.3487 18.7491 14.608 19.2596 15.4334H19.2582Z" fill="#000128"/>
<path d="M115.457 25.7061H109.516C109.487 25.3373 109.429 24.9196 109.425 24.5032C109.402 22.1466 109.411 19.7884 109.371 17.4332C109.351 16.6796 109.272 15.9287 109.137 15.1874C109.052 14.6991 108.756 14.3231 108.181 14.3778C107.607 14.4326 107.299 14.7524 107.278 15.3286C107.251 16.0387 107.241 16.7504 107.243 17.4605C107.253 19.8388 107.272 22.2143 107.282 24.5969C107.282 24.9268 107.241 25.2552 107.213 25.6974H100.852V8.97876L106.524 8.77132V11.2505C107.733 9.60971 109.123 8.62871 110.996 8.54372C112.84 8.46016 114.043 9.39219 114.872 11.5458C114.94 11.4954 115.002 11.4363 115.056 11.37C116.224 9.41955 118.024 9.01909 120.069 9.31152C121.478 9.51319 122.411 10.4308 122.905 11.7157C123.266 12.655 123.595 13.6763 123.614 14.6688C123.697 18.3292 123.648 21.9924 123.648 25.8256C122.719 25.8256 121.76 25.8343 120.803 25.8256C119.819 25.8141 118.834 25.7781 117.849 25.7651C117.475 25.7651 117.282 25.6067 117.274 25.2134C117.262 24.2367 117.238 23.2601 117.227 22.282C117.203 20.1961 117.191 18.1045 117.156 16.0229C117.158 15.7327 117.086 15.4469 116.948 15.1932C116.806 14.9569 116.522 14.6443 116.309 14.6559C116.051 14.6717 115.667 14.9439 115.592 15.1816C115.416 15.7523 115.327 16.3468 115.327 16.9448C115.342 19.568 115.403 22.1912 115.447 24.8144C115.46 25.0535 115.457 25.297 115.457 25.7061Z" fill="#000128"/>
<path d="M39.7998 25.6384C39.624 18.698 39.4495 11.7518 39.2709 4.66015C40.3883 4.58668 41.4887 4.46135 42.5919 4.45271C44.7858 4.41972 46.963 4.84481 48.9886 5.70164C52.8683 7.364 55.5115 11.5156 55.3414 15.7954C55.3026 16.9265 55.138 18.0496 54.8507 19.1431C53.8283 22.9389 51.2674 24.9988 47.5039 25.6341C45.0408 26.0504 42.5749 25.9093 40.1075 25.7364C40.0019 25.7145 39.8988 25.6817 39.7998 25.6384ZM46.3227 18.1117C48.3704 18.1463 49.5913 17.0515 49.5289 15.3747C49.4693 13.7441 47.962 12.4735 46.3227 12.6377V18.1117Z" fill="#000128"/>
<path d="M143.37 8.9024C143.37 10.5691 143.379 12.1868 143.37 13.8002C143.36 15.1788 143.314 16.5559 143.311 17.9345C143.294 18.3564 143.347 18.7782 143.469 19.1819C143.564 19.4499 143.866 19.81 144.087 19.8187C144.352 19.8287 144.796 19.5623 144.873 19.3231C145.121 18.4804 145.348 17.6032 145.387 16.7302C145.497 14.3778 145.505 12.0211 145.553 9.67164C145.553 9.43251 145.553 9.19338 145.553 8.83325H151.225V25.7349H145.533C145.485 24.9397 145.431 24.0898 145.372 23.1232C145.17 23.3667 145.037 23.5237 144.908 23.685C143.989 24.8245 142.856 25.5995 141.404 25.8573C139.844 26.1354 138.412 25.4252 137.975 23.8809C137.55 22.3785 137.191 20.8069 137.144 19.2554C137.041 15.8399 137.154 12.4187 137.18 8.90528L143.37 8.9024Z" fill="#000128"/>
<path d="M179.059 8.98462H185C184.935 9.95121 184.897 10.9178 184.803 11.8786C184.433 15.66 183.686 19.352 182.029 22.7862C180.565 25.8243 178.669 28.5152 175.696 30.2453C174.619 30.8719 174.494 30.9036 173.737 29.924C172.98 28.9445 172.364 27.8756 171.699 26.837C171.441 26.4322 171.529 26.1643 171.964 25.8747C172.951 25.2192 173.904 24.5114 174.817 23.7543C175.243 23.3985 175.543 22.8799 175.918 22.4146C172.08 20.5938 171.38 17.0847 171.047 13.4113C170.919 11.9838 171.027 10.5303 171.027 9.048H176.817C176.817 9.39373 176.817 9.62422 176.817 9.86334C176.854 11.481 176.837 13.1031 176.959 14.7165C177.01 15.4137 177.205 16.1901 178.29 16.4321C178.479 15.1861 178.707 13.9832 178.833 12.7631C178.959 11.543 178.982 10.3286 179.059 8.98462Z" fill="#000128"/>
<path d="M98.8366 25.6268C97.1902 25.6888 95.5141 25.7579 93.838 25.7997C93.7302 25.7997 93.57 25.6153 93.519 25.4828C93.4166 25.1691 93.3319 24.8497 93.2651 24.5263C93.0879 24.63 92.9475 24.7092 92.8099 24.7928C91.4387 25.6268 89.9739 26.0691 88.3659 25.8242C86.5635 25.5505 85.5298 24.3995 85.388 22.5629C85.1413 19.1215 87.0017 16.8382 90.3823 16.4565C91.0913 16.3758 91.8159 16.3513 92.5363 16.3009C92.8057 15.1787 92.213 14.2957 91.1267 14.4686C90.1781 14.6126 89.2734 15.0635 88.3573 15.4006C88.095 15.4957 87.861 15.67 87.4895 15.8788C87.2541 15.3603 86.9521 14.8921 86.8259 14.3793C86.5295 13.1764 86.2998 11.9549 86.0913 10.7319C86.0902 10.6112 86.1176 10.4919 86.1711 10.3842C86.2247 10.2764 86.3028 10.1832 86.3991 10.1124C88.9515 8.64887 91.6996 8.1735 94.564 8.80301C96.2799 9.18043 97.5079 10.3256 98.0637 12.011C98.4707 13.2398 98.811 14.5464 98.8578 15.8313C98.9727 18.9832 98.9018 22.1422 98.9032 25.297C98.8887 25.4084 98.8664 25.5186 98.8366 25.6268ZM92.8539 19.156C92.2569 19.4067 91.7408 19.5349 91.3281 19.8201C90.8148 20.1745 90.8587 20.7536 91.097 21.2606C91.3352 21.7677 91.8301 21.7518 92.2952 21.6294C92.8298 21.4853 93.1063 21.1699 92.9858 20.5577C92.9106 20.1788 92.9092 19.7769 92.8539 19.156Z" fill="#000128"/>
<path d="M75.5794 18.6677C75.5667 19.7121 76.2813 20.3963 77.4597 20.4438C78.7359 20.4914 79.8519 20.003 80.8913 19.3001C81.0899 19.1647 81.2785 19.012 81.5578 18.8045C82.3604 19.9325 83.163 21.0345 83.9245 22.1667C84.0039 22.2848 83.8961 22.6248 83.7742 22.7804C81.9308 25.114 79.5414 26.2203 76.5905 26.0014C76.0455 25.9555 75.5047 25.8684 74.9725 25.7406C72.352 25.1428 70.7085 23.5093 70.0449 20.8688C69.3812 18.2283 69.4309 15.6224 70.2746 13.0468C71.1538 10.3645 73.2524 8.81452 76.0445 8.70936C77.2328 8.66471 78.4084 8.70936 79.5329 9.16745C81.8329 10.1023 82.7773 12.0269 83.129 14.3432C83.2708 15.2608 83.2424 16.2029 83.3218 17.1321C83.363 17.6089 83.146 17.7357 82.7277 17.7832C80.4674 18.0411 78.2084 18.3205 75.9495 18.5942C75.8233 18.6129 75.6999 18.6432 75.5794 18.6677ZM77.983 14.663C78.1248 13.901 77.9376 13.2456 77.3349 12.9344C77.1155 12.8364 76.8788 12.7848 76.6391 12.7828C76.3995 12.7809 76.1619 12.8285 75.941 12.9229C75.2476 13.2787 75.1937 14.0422 75.232 14.8561L77.983 14.663Z" fill="#000128"/>
<path d="M126.791 26.0085V16.8022C125.483 16.5904 125.476 16.5904 125.467 15.3386C125.457 14.2265 125.49 13.1144 125.458 12.0038C125.44 11.3988 125.59 11.0617 126.258 11.174C126.426 11.181 126.595 11.1689 126.76 11.138C126.816 10.5805 126.84 10.0274 126.93 9.48575C127.498 6.06739 129.857 4.14285 133.425 4.37766C136.235 4.5606 135.583 4.16014 135.724 6.75884C135.768 7.57418 135.724 8.39383 135.724 9.17891C133.38 9.64996 133.171 9.8646 133.374 11.5759H135.339V16.5328H133.354C133.354 16.8857 133.354 17.2127 133.354 17.5411C133.382 20.0534 133.402 22.5657 133.452 25.0765C133.462 25.5893 133.31 25.7809 132.793 25.7968C130.857 25.8443 128.918 25.9293 126.791 26.0085Z" fill="#000128"/>
<path d="M159.739 25.6788C159.529 25.7211 159.316 25.75 159.103 25.7653C157.353 25.7581 155.603 25.7365 153.856 25.7336C153.479 25.7336 153.307 25.6212 153.306 25.2049C153.292 18.4709 153.271 11.737 153.243 5.00304C153.243 4.8489 153.269 4.69476 153.299 4.37785L160.05 4.1416C159.944 11.4278 159.841 18.5339 159.739 25.6788Z" fill="#000128"/>
<path d="M162.184 4.37052L168.979 4.14868C168.874 11.4392 168.773 18.5438 168.67 25.7118H162.184V4.37052Z" fill="#000128"/>
<path d="M63.9389 25.6817H57.0529C57.0314 25.5419 57.0172 25.401 57.0104 25.2596C57.0104 20.1487 57.0156 15.0377 57.026 9.92674C57.026 8.89821 57.0458 8.84779 58.0271 8.81754C59.5302 8.77288 61.0376 8.80601 62.6087 8.80601C62.6768 9.52627 62.7505 10.3272 62.8441 11.3312C64.0594 9.24826 65.9156 9.13157 67.8795 9.0898C68.1759 11.6914 68.1263 14.2296 67.8795 16.86C67.6229 16.8182 67.4003 16.7865 67.179 16.7447C66.6005 16.6324 66.0276 16.4753 65.4448 16.4076C64.299 16.2737 63.5305 16.7937 63.4213 17.9677C63.322 19.038 63.434 20.1285 63.5134 21.2161C63.6198 22.6465 63.7843 24.087 63.9389 25.6817Z" fill="#000128"/>
</g>
<defs>
<clipPath id="clip0_329_2185">
<rect width="185" height="31" fill="white"/>
</clipPath>
</defs>
</svg>
