<svg width="390" height="126" viewBox="0 0 390 126" fill="none" xmlns="http://www.w3.org/2000/svg">
<path d="M324.5 79L396.5 7V126H-6V88L72.5 41L135 60L163.5 88L247 110.5L324.5 79Z" fill="#FCFBF9"/>
<g clip-path="url(#clip0_367_2319)">
<path d="M168.064 80.7922C277.814 128.973 327.21 71.1622 355.44 49.0997C396.931 16.6209 408 24.8574 408 24.8574V0C365.658 7.30228 291.805 128.942 202.252 75.6619C70.7275 -7.30228 -17 55.9349 -17 55.9349L-17 83.8984C-17 83.8984 47.0004 15.3908 168.064 80.7844" fill="#2941A5"/>
<path d="M118.107 74.5526C220.951 121.161 268.131 125.521 329.819 83.5598C384.083 37.8855 408.418 44.2536 408.418 44.2536V21.4126C408.418 21.4126 397.349 13.1761 355.859 45.6549C327.628 67.7175 278.233 125.528 168.482 77.3474C47.5405 11.9538 -16.4599 80.2979 -16.4599 80.2979L-16.4599 113.547C-16.5816 113.547 51.5569 44.2614 118.107 74.5526Z" fill="#6372DE"/>
</g>
<defs>
<clipPath id="clip0_367_2319">
<rect width="425" height="117" fill="white" transform="translate(-17)"/>
</clipPath>
</defs>
</svg>
