<svg width="33" height="22" viewBox="0 0 33 22" fill="none" xmlns="http://www.w3.org/2000/svg">
<g clip-path="url(#clip0_208_5155)">
<path d="M28.0833 0H4C1.79086 0 0 1.79086 0 4V18C0 20.2091 1.79086 22 4 22H28.0833C30.2925 22 32.0833 20.2091 32.0833 18V4C32.0833 1.79086 30.2925 0 28.0833 0Z" fill="white"/>
<path fill-rule="evenodd" clip-rule="evenodd" d="M15.1527 14.4448V11.6756H16.5819C17.1676 11.6756 17.6619 11.4794 18.0649 11.0924L18.1616 10.9942C18.8977 10.1929 18.8493 8.94457 18.0649 8.20324C17.6727 7.81077 17.1353 7.59817 16.5819 7.60904H14.2876V14.4448H15.1527ZM15.1528 10.8362V8.44851H16.6037C16.9154 8.44851 17.211 8.56844 17.4313 8.78651C17.8989 9.24437 17.9096 10.0076 17.4582 10.4818C17.2379 10.7162 16.9262 10.847 16.6037 10.8362H15.1528ZM22.1968 10.133C21.8261 9.78957 21.321 9.61511 20.6816 9.61511C19.8595 9.61511 19.2416 9.92037 18.8333 10.5254L19.5963 11.0106C19.8757 10.5963 20.2571 10.3892 20.7407 10.3892C21.047 10.3892 21.3425 10.5036 21.5735 10.7108C21.7992 10.907 21.9281 11.1905 21.9281 11.4903V11.692C21.5951 11.5066 21.1759 11.4086 20.6601 11.4086C20.0583 11.4086 19.5747 11.5503 19.2147 11.8392C18.8547 12.1281 18.6721 12.5097 18.6721 12.9948C18.6613 13.4364 18.8494 13.8561 19.1825 14.1396C19.521 14.4448 19.9509 14.5975 20.4559 14.5975C21.0523 14.5975 21.5252 14.3304 21.8852 13.7962H21.9228V14.4448H22.7503V11.5612C22.7503 10.9561 22.5675 10.4764 22.1968 10.133ZM19.8489 13.5836C19.6716 13.4528 19.5641 13.2402 19.5641 13.0112C19.5641 12.755 19.6823 12.5424 19.9134 12.3734C20.1499 12.2044 20.4455 12.1172 20.7947 12.1172C21.2784 12.1118 21.6546 12.2208 21.9233 12.4388C21.9233 12.8095 21.7782 13.1311 21.4933 13.4037C21.2354 13.6654 20.8861 13.8125 20.5207 13.8125C20.2789 13.818 20.0424 13.7362 19.8489 13.5836ZM24.6093 16.5L27.5001 9.76771H26.5598L25.2219 13.1256H25.2058L23.8356 9.76771H22.8953L24.7921 14.145L23.7174 16.5H24.6093Z" fill="#3C4043"/>
<path d="M12.1659 11.0761C12.1659 10.809 12.1445 10.5419 12.1015 10.2803H8.45312V11.7902H10.5433C10.4573 12.2754 10.1779 12.7115 9.76952 12.984V13.9653H11.0161C11.7469 13.2839 12.1659 12.2754 12.1659 11.0761Z" fill="#4285F4"/>
<path d="M8.45345 14.9136C9.49585 14.9136 10.377 14.5647 11.0164 13.9651L9.76985 12.9838C9.42058 13.2237 8.97465 13.36 8.45345 13.36C7.44332 13.36 6.58898 12.6677 6.28271 11.741H4.99854V12.7549C5.65406 14.0796 6.99198 14.9136 8.45345 14.9136Z" fill="#34A853"/>
<path d="M6.28301 11.741C6.12179 11.2558 6.12179 10.7271 6.28301 10.2365V9.22803H4.99864C4.44512 10.3346 4.44512 11.6429 4.99864 12.7495L6.28301 11.741Z" fill="#FBBC04"/>
<path d="M8.45345 8.61749C9.00685 8.60663 9.53878 8.81923 9.93638 9.20623L11.0432 8.08329C10.3394 7.41823 9.41525 7.05303 8.45345 7.06396C6.99198 7.06396 5.65406 7.90343 4.99854 9.22803L6.28271 10.242C6.58898 9.30983 7.44332 8.61749 8.45345 8.61749Z" fill="#EA4335"/>
</g>
<defs>
<clipPath id="clip0_208_5155">
<rect width="32.6667" height="22" fill="white"/>
</clipPath>
</defs>
</svg>
