<svg width="15" height="98" viewBox="0 0 15 98" fill="none" xmlns="http://www.w3.org/2000/svg">
<path opacity="0.7" d="M9.92813 1.37226C10.1337 0.859671 9.88485 0.277467 9.37226 0.0718721C8.85967 -0.133722 8.27747 0.115148 8.07187 0.627738L9.92813 1.37226ZM8.46022 97.8418C8.92514 98.1399 9.5437 98.0047 9.84181 97.5398L14.6998 89.9635C14.9979 89.4986 14.8627 88.88 14.3978 88.5819C13.9329 88.2838 13.3143 88.419 13.0162 88.884L8.69797 95.6184L1.96351 91.3002C1.49859 91.0021 0.880034 91.1373 0.581923 91.6022C0.283812 92.0671 0.419035 92.6857 0.883953 92.9838L8.46022 97.8418ZM8.07187 0.627738C2.55607 14.3798 1.43431 33.3798 2.22809 51.4369C3.02323 69.5246 5.74839 86.8084 8.02307 97.2136L9.97693 96.7864C7.72387 86.4802 5.01574 69.3104 4.22617 51.3491C3.43524 33.3572 4.57735 14.7129 9.92813 1.37226L8.07187 0.627738Z" fill="#F5F5F5"/>
</svg>
