<svg width="1531" height="527" viewBox="0 0 1531 527" fill="none" xmlns="http://www.w3.org/2000/svg">
<g clip-path="url(#clip0_339_2394)">
<path d="M-42 60.2407C-42 91.8669 -23.8182 117.826 -0.703208 120.283V527H1568.27V124.125C1576.42 119.375 1583.1 111.176 1586.21 100.826C1592.16 81.0275 1582.79 60.8165 1565.27 55.7306C1555.35 52.8564 1544.94 55.4351 1536.7 61.8204C1535.08 53.2547 1530.69 45.433 1524.17 39.52C1505.6 22.7896 1474.65 26.2702 1455.03 47.2712C1454.16 48.2037 1453.33 49.1618 1452.53 50.1301C1448.66 44.163 1442.73 39.7575 1435.83 37.7109C1426.34 34.959 1416.41 37.2013 1408.34 42.9854C1397.69 29.9241 1382.81 21.2048 1365.74 19.6504C1329 16.2921 1296.02 47.3425 1292.08 89.0029C1291.18 98.2601 1291.82 107.599 1293.98 116.654C1282.47 119.931 1271.78 125.518 1262.59 133.064C1250.11 143.256 1241.32 155.955 1236.47 169.342C1233.3 158.972 1225.79 150.691 1215.43 147.684C1200.79 143.439 1185.08 151.088 1176.85 165.291C1152.52 140.871 1109.41 141.12 1078.06 166.662C1070.92 172.454 1064.77 179.322 1059.82 187.011C1043.92 179.958 1023.09 184.626 1008.99 199.72C1002.29 206.791 997.867 215.643 996.262 225.17C974.018 201.774 935.051 199.873 904.217 219.972C899.605 213.857 893.085 209.556 885.366 208.19C869.155 205.326 853.266 216.481 847.757 233.67C823.563 208.598 779.942 208.623 748.336 234.394C736.918 243.596 728.124 255.55 722.814 269.088C717.139 262.29 708.59 257.199 698.433 255.41C683.467 252.76 669.181 258.034 661.312 267.88C658.473 260.628 654.443 253.883 649.381 247.914C626.888 221.282 589.612 215.217 566.123 234.363C560.718 238.774 556.349 244.281 553.316 250.508C551.788 247.024 549.758 243.775 547.288 240.861C535.056 226.383 514.934 222.856 501.81 232.707C499.175 223.394 495.001 214.569 489.454 206.585C464.813 170.963 419.31 159.13 387.822 180.156C380.856 184.806 374.951 190.828 370.481 197.84C368.053 191.367 364.514 185.352 360.018 180.054C341.25 157.836 310.385 152.429 290.253 167.518C286.744 158.608 281.784 150.317 275.567 142.97C247.555 109.846 201.128 102.319 171.819 126.204C168.946 128.543 166.301 131.14 163.919 133.96C154.151 120.425 139.792 111.874 123.784 111.874C118.181 111.877 112.63 112.928 107.428 114.972C105.349 108.136 102.457 101.564 98.8118 95.3934C86.0456 73.6739 66.2297 59.7514 47.8197 57.499C46.7511 25.5007 27.0701 0 2.93316 0C-21.8833 0 -42 26.9735 -42 60.2407Z" fill="#2941A5"/>
</g>
<defs>
<clipPath id="clip0_339_2394">
<rect width="1531" height="527" fill="white"/>
</clipPath>
</defs>
</svg>
