<svg width="1512" height="239" viewBox="0 0 1512 239" fill="none" xmlns="http://www.w3.org/2000/svg">
<path d="M1317.86 122.84L1512 68V239H0V205.099L234.749 122.84H514.07L789.925 222.548L1079.65 205.099L1317.86 122.84Z" fill="#000128"/>
<path d="M658.392 168.171C1048.85 268.461 1224.58 148.126 1325.01 102.202C1472.62 34.5967 1512 51.7411 1512 51.7411V0C1361.36 15.1999 1098.62 268.396 780.02 157.492C312.103 -15.1999 0 116.43 0 116.43L0 174.636C0 174.636 227.691 32.0364 658.392 168.155" fill="#2941A5"/>
<path d="M478.879 155.134C844.866 251.789 1012.76 260.83 1232.29 173.813C1425.4 79.0952 1512 92.3011 1512 92.3011V44.9342C1512 44.9342 1472.61 27.8537 1324.96 95.2071C1224.5 140.96 1048.71 260.846 658.148 160.93C227.757 25.3191 0.000579368 167.048 0.000579368 167.048L0.000579368 236C-0.43254 236 242.05 92.3172 478.879 155.134Z" fill="#6372DE"/>
</svg>
