<svg width="120" height="18" viewBox="0 0 120 18" fill="none" xmlns="http://www.w3.org/2000/svg">
<g clip-path="url(#clip0_244_4654)">
<path d="M8.13259 1.18284C8.44078 0.463141 9.49044 0.463142 9.79862 1.18284L11.6175 5.43064C11.7475 5.73405 12.0413 5.94136 12.3785 5.96762L17.0998 6.33527C17.8997 6.39756 18.2241 7.36719 17.6146 7.87428L14.0175 10.8672C13.7606 11.081 13.6483 11.4164 13.7268 11.736L14.8258 16.2111C15.012 16.9692 14.1629 17.5685 13.478 17.1623L9.43589 14.7641C9.14716 14.5928 8.78406 14.5928 8.49534 14.7641L4.45321 17.1623C3.76835 17.5685 2.91916 16.9692 3.10536 16.2111L4.20435 11.736C4.28285 11.4164 4.17064 11.081 3.91372 10.8672L0.316542 7.87428C-0.292922 7.36719 0.0314405 6.39756 0.831373 6.33527L5.55272 5.96762C5.88996 5.94136 6.18372 5.73405 6.31364 5.43064L8.13259 1.18284Z" fill="#40C89B"/>
<path d="M33.97 1.18284C34.2782 0.463141 35.3278 0.463142 35.636 1.18284L37.4549 5.43064C37.5849 5.73405 37.8787 5.94136 38.2159 5.96762L42.9372 6.33527C43.7371 6.39756 44.0615 7.36719 43.452 7.87428L39.8549 10.8672C39.598 11.081 39.4857 11.4164 39.5642 11.736L40.6632 16.2111C40.8494 16.9692 40.0003 17.5685 39.3154 17.1623L35.2733 14.7641C34.9846 14.5928 34.6215 14.5928 34.3327 14.7641L30.2906 17.1623C29.6057 17.5685 28.7566 16.9692 28.9428 16.2111L30.0418 11.736C30.1203 11.4164 30.008 11.081 29.7511 10.8672L26.1539 7.87428C25.5445 7.36719 25.8688 6.39756 26.6688 6.33527L31.3901 5.96762C31.7274 5.94136 32.0211 5.73405 32.151 5.43064L33.97 1.18284Z" fill="#40C89B"/>
<path d="M59.2265 1.18284C59.5127 0.463141 60.4874 0.463142 60.7735 1.18284L62.4625 5.43064C62.5832 5.73405 62.856 5.94136 63.1691 5.96762L67.5532 6.33527C68.296 6.39756 68.5972 7.36719 68.0312 7.87428L64.6911 10.8672C64.4525 11.081 64.3483 11.4164 64.4212 11.736L65.4416 16.2111C65.6145 16.9692 64.826 17.5685 64.1901 17.1623L60.4367 14.7641C60.1686 14.5928 59.8314 14.5928 59.5633 14.7641L55.8099 17.1623C55.174 17.5685 54.3855 16.9692 54.5584 16.2111L55.5788 11.736C55.6517 11.4164 55.5475 11.081 55.309 10.8672L51.9687 7.87428C51.4028 7.36719 51.704 6.39756 52.4468 6.33527L56.8309 5.96762C57.1441 5.94136 57.4168 5.73405 57.5375 5.43064L59.2265 1.18284Z" fill="#40C89B"/>
<path d="M84.364 1.18284C84.6722 0.463141 85.7219 0.463142 86.0301 1.18284L87.849 5.43064C87.979 5.73405 88.2728 5.94136 88.61 5.96762L93.3313 6.33527C94.1312 6.39756 94.4555 7.36719 93.8461 7.87428L90.249 10.8672C89.9921 11.081 89.8798 11.4164 89.9583 11.736L91.0573 16.2111C91.2435 16.9692 90.3943 17.5685 89.7094 17.1623L85.6673 14.7641C85.3786 14.5928 85.0155 14.5928 84.7268 14.7641L80.6847 17.1623C79.9998 17.5685 79.1506 16.9692 79.3368 16.2111L80.4358 11.736C80.5143 11.4164 80.4021 11.081 80.1452 10.8672L76.548 7.87428C75.9385 7.36719 76.2629 6.39756 77.0628 6.33527L81.7842 5.96762C82.1214 5.94136 82.4152 5.73405 82.5451 5.43064L84.364 1.18284Z" fill="#40C89B"/>
<path fill-rule="evenodd" clip-rule="evenodd" d="M119.904 6.83878L119.976 7.05787C120.034 7.22322 119.985 7.40699 119.85 7.52232L115.505 11.1591L116.793 16.6098C116.836 16.784 116.769 16.9669 116.623 17.0743L116.426 17.2057C116.35 17.2644 116.255 17.2954 116.158 17.2934C116.076 17.295 115.995 17.2737 115.925 17.232L111.035 14.3138L106.171 17.232C106.101 17.2737 106.02 17.295 105.938 17.2934C105.841 17.2954 105.746 17.2644 105.67 17.2057L105.447 17.0743C105.3 16.9669 105.233 16.784 105.277 16.6098L106.564 11.1591L102.228 7.53108C102.086 7.41644 102.033 7.22757 102.094 7.05787L102.192 6.83878C102.244 6.66564 102.402 6.54307 102.585 6.53207L108.299 6.08514L110.489 0.923588C110.559 0.752174 110.73 0.640739 110.918 0.643164H111.151C111.338 0.63928 111.506 0.75187 111.571 0.923588L113.797 6.08514L119.511 6.53207C119.695 6.54307 119.852 6.66564 119.904 6.83878ZM114.718 14.717L113.717 10.6158L116.998 7.87285L112.698 7.53984L111.035 3.63143V12.5174L114.718 14.717Z" fill="#40C89B"/>
</g>
<defs>
<clipPath id="clip0_244_4654">
<rect width="120" height="16.6504" fill="white" transform="translate(0 0.643066)"/>
</clipPath>
</defs>
</svg>
