<svg width="149" height="25" viewBox="0 0 149 25" fill="none" xmlns="http://www.w3.org/2000/svg">
<g clip-path="url(#clip0_197_7960)">
<rect width="148.149" height="23.4573" transform="translate(0 0.771362)" fill="white"/>
<path d="M11.1987 1.59605C11.6231 0.58806 13.0685 0.588062 13.4929 1.59605L15.9976 7.54536C16.1766 7.9703 16.5811 8.26065 17.0455 8.29742L23.5468 8.81234C24.6483 8.89958 25.0949 10.2576 24.2557 10.9678L19.3024 15.1596C18.9486 15.459 18.794 15.9288 18.9021 16.3764L20.4154 22.644C20.6718 23.7059 19.5025 24.5453 18.5595 23.9763L12.9934 20.6175C12.5958 20.3776 12.0958 20.3776 11.6982 20.6175L6.13215 23.9763C5.18908 24.5453 4.01974 23.7059 4.27614 22.644L5.78947 16.3764C5.89757 15.9288 5.74305 15.459 5.38926 15.1596L0.435884 10.9678C-0.40336 10.2576 0.0432941 8.89958 1.14482 8.81234L7.6462 8.29742C8.11058 8.26065 8.5151 7.9703 8.69401 7.54536L11.1987 1.59605Z" fill="#40C89B"/>
<path d="M42.0632 1.59605C42.4876 0.58806 43.933 0.588062 44.3573 1.59605L46.862 7.54536C47.041 7.9703 47.4456 8.26065 47.9099 8.29742L54.4112 8.81234C55.5127 8.89958 55.9594 10.2576 55.1201 10.9678L50.1668 15.1596C49.8131 15.459 49.6585 15.9288 49.7666 16.3764L51.2799 22.644C51.5363 23.7059 50.367 24.5453 49.4239 23.9763L43.8578 20.6175C43.4603 20.3776 42.9603 20.3776 42.5627 20.6175L36.9966 23.9763C36.0535 24.5453 34.8842 23.7059 35.1406 22.644L36.6539 16.3764C36.762 15.9288 36.6075 15.459 36.2537 15.1596L31.3003 10.9678C30.4611 10.2576 30.9077 8.89958 32.0093 8.81234L38.5106 8.29742C38.975 8.26065 39.3795 7.9703 39.5584 7.54536L42.0632 1.59605Z" fill="#40C89B"/>
<path d="M72.9277 1.59605C73.3521 0.58806 74.7975 0.588062 75.2218 1.59605L77.7265 7.54536C77.9055 7.9703 78.3101 8.26065 78.7744 8.29742L85.2757 8.81234C86.3772 8.89958 86.8239 10.2576 85.9846 10.9678L81.0313 15.1596C80.6776 15.459 80.523 15.9288 80.6311 16.3764L82.1444 22.644C82.4008 23.7059 81.2315 24.5453 80.2884 23.9763L74.7223 20.6175C74.3248 20.3776 73.8248 20.3776 73.4272 20.6175L67.8611 23.9763C66.918 24.5453 65.7487 23.7059 66.0051 22.644L67.5184 16.3764C67.6265 15.9288 67.472 15.459 67.1182 15.1596L62.1648 10.9678C61.3256 10.2576 61.7722 8.89958 62.8738 8.81234L69.3751 8.29742C69.8395 8.26065 70.244 7.9703 70.4229 7.54536L72.9277 1.59605Z" fill="#40C89B"/>
<path d="M103.792 1.59605C104.217 0.58806 105.662 0.588062 106.086 1.59605L108.591 7.54536C108.77 7.9703 109.174 8.26065 109.639 8.29742L116.14 8.81234C117.242 8.89958 117.688 10.2576 116.849 10.9678L111.896 15.1596C111.542 15.459 111.387 15.9288 111.496 16.3764L113.009 22.644C113.265 23.7059 112.096 24.5453 111.153 23.9763L105.587 20.6175C105.189 20.3776 104.689 20.3776 104.292 20.6175L98.7255 23.9763C97.7825 24.5453 96.6131 23.7059 96.8695 22.644L98.3829 16.3764C98.491 15.9288 98.3364 15.459 97.9826 15.1596L93.0293 10.9678C92.19 10.2576 92.6367 8.89958 93.7382 8.81234L100.24 8.29742C100.704 8.26065 101.108 7.9703 101.287 7.54536L103.792 1.59605Z" fill="#40C89B"/>
<path fill-rule="evenodd" clip-rule="evenodd" d="M148.017 9.49997L148.116 9.80861C148.197 10.0416 148.129 10.3005 147.943 10.4629L141.96 15.5865L143.733 23.2655C143.793 23.511 143.701 23.7686 143.499 23.9199L143.228 24.105C143.123 24.1878 142.992 24.2313 142.859 24.2285C142.746 24.2308 142.635 24.2008 142.538 24.1421L135.804 20.0309L129.106 24.1421C129.01 24.2008 128.899 24.2308 128.786 24.2285C128.652 24.2313 128.522 24.1878 128.417 24.105L128.109 23.9199C127.907 23.7686 127.815 23.511 127.875 23.2655L129.648 15.5865L123.677 10.4753C123.482 10.3138 123.408 10.0477 123.492 9.80861L123.627 9.49997C123.699 9.25604 123.916 9.08336 124.169 9.06787L132.036 8.43823L135.053 1.16656C135.149 0.925075 135.384 0.768083 135.644 0.7715H135.964C136.221 0.766028 136.453 0.924647 136.543 1.16656L139.608 8.43823L147.476 9.06787C147.729 9.08336 147.945 9.25604 148.017 9.49997ZM140.876 20.5988L139.497 14.821L144.016 10.9568L138.094 10.4876L135.804 4.98141V17.5L140.876 20.5988Z" fill="#40C89B"/>
</g>
<defs>
<clipPath id="clip0_197_7960">
<rect width="148.149" height="23.4573" fill="white" transform="translate(0 0.771362)"/>
</clipPath>
</defs>
</svg>
