<svg width="74" height="74" viewBox="0 0 74 74" fill="none" xmlns="http://www.w3.org/2000/svg">
<path fill-rule="evenodd" clip-rule="evenodd" d="M58.7642 30C59.5653 32.3004 60 34.7643 60 37.3264C60 49.8403 49.6332 60 36.8641 60C25.3038 60 15.713 51.6731 14 40.8125C17.3711 44.0491 21.9867 46.0472 27.0757 46.0472C27.3774 46.0472 27.6762 46.0397 27.9741 46.0265C31.1274 48.119 34.9303 49.3415 39.0215 49.3415C49.9156 49.3415 58.7603 40.6755 58.7642 30Z" fill="#6372DE"/>
<path fill-rule="evenodd" clip-rule="evenodd" d="M17.3364 45.3002C20.6026 52.8465 28.1212 58.1323 36.8633 58.1323C42.7167 58.1323 48.0212 55.762 51.8684 51.9309C52.6252 51.1777 53.8505 51.1803 54.6028 51.9362C55.356 52.6921 55.3533 53.9174 54.5974 54.6706C50.0506 59.1996 43.7813 62 36.8633 62C24.3035 62 13.8836 52.7671 12.0229 40.7257C11.8953 39.9029 12.3094 39.0908 13.0501 38.7106C13.7908 38.3295 14.6921 38.4661 15.2874 39.0497C18.318 42.0206 22.4704 43.8536 27.0468 43.8536C36.3225 43.8536 43.8536 36.3225 43.8536 27.0467C43.8536 22.4704 42.0206 18.318 39.0498 15.2874C38.4661 14.6921 38.3296 13.7908 38.7106 13.0501C39.0908 12.3094 39.9029 11.8953 40.7257 12.0229C52.7671 13.8836 62 24.3034 62 36.8633C62 40.7551 61.113 44.4417 59.5307 47.732C59.0684 48.6941 57.9127 49.0992 56.9507 48.637C55.9887 48.1747 55.5835 47.0181 56.0458 46.057C57.3835 43.2735 58.1323 40.1554 58.1323 36.8633C58.1323 28.1212 52.8465 20.6026 45.3002 17.3364C46.845 20.2322 47.7213 23.5378 47.7213 27.0467C47.7213 38.4572 38.4572 47.7213 27.0468 47.7213C23.5378 47.7213 20.2323 46.845 17.3364 45.3002Z" fill="#000128"/>
</svg>
