<svg width="1531" height="412" viewBox="0 0 1531 412" fill="none" xmlns="http://www.w3.org/2000/svg">
<g clip-path="url(#clip0_339_2391)">
<path d="M-27.9999 174.361C-27.9999 188.816 -16.6018 200.94 -1.2449 204.225V412H1535.75V176.75C1549.31 171.671 1559 158.24 1559 142.465C1559 122.327 1543.21 106 1523.72 106C1504.7 106 1489.19 121.568 1488.47 141.029C1473.88 142.504 1458.36 148.358 1445.54 158.177C1437.45 164.292 1431.13 171.634 1426.97 179.732C1413.43 178.039 1396.88 182.503 1384 192.369C1381.58 194.218 1379.36 196.212 1377.36 198.332C1374.96 193.837 1371.42 189.752 1366.94 186.313C1342.43 167.542 1295.75 172.858 1262.68 198.192C1256.59 202.835 1251.23 207.999 1246.68 213.581C1231.34 209.3 1210.42 213.819 1194.64 225.904C1188.31 230.694 1183.34 236.43 1180.03 242.756C1171.79 233.244 1160.14 225.75 1146.49 221.167C1132.84 216.584 1117.75 215.106 1103.03 216.909C1088.31 218.712 1074.57 223.721 1063.47 231.337C1052.36 238.953 1044.35 248.855 1040.39 259.862C1026.42 252.961 1008.12 253.849 996.503 262.75C994.493 264.288 992.752 266.021 991.325 267.903C983.405 262.755 974.044 259.073 963.967 257.141C953.89 255.208 943.368 255.078 933.215 256.76C923.062 258.442 913.55 261.891 905.417 266.841C897.284 271.79 890.747 278.106 886.312 285.301C878.35 279.623 867.975 276.344 857.103 276.068C846.231 275.793 835.595 278.54 827.161 283.802C821.051 276.242 813.159 269.618 803.887 264.268C771.029 245.197 728.267 245.263 704.174 263.423C700.378 251.599 687.974 242.932 673.252 242.932C661.981 242.932 652.072 248.011 646.319 255.698C636.186 248.933 621.815 244.71 605.874 244.71C586.564 244.71 569.596 250.895 559.631 260.279C555.388 242.873 538.11 229.846 517.453 229.846C511.569 229.857 505.769 230.923 500.521 232.96C495.079 225.056 487.627 218.066 478.603 212.402C446.436 192.081 402.21 192.307 378.891 212.663C372.477 205.291 362.339 200.535 350.941 200.535C338.12 200.535 326.9 206.552 320.771 215.535C317.11 210.611 312.597 206.088 307.356 202.088C297.329 194.409 285.535 189.193 273.613 186.578C273.694 183.451 273.538 180.323 273.146 177.21C268.572 140.601 232.904 113.27 193.506 116.166C176.838 117.392 162.167 123.834 151.135 133.63C145.941 130.968 139.836 129.541 133.587 129.528C123.719 129.528 114.785 133.089 108.428 138.818C98.9812 132.96 87.5017 129.528 75.1278 129.528C56.1629 129.528 39.312 137.588 28.6303 150.082C22.6848 146.038 15.2148 143.633 7.10439 143.633C-12.2721 143.613 -27.9999 157.395 -27.9999 174.361Z" fill="#000128"/>
</g>
<defs>
<clipPath id="clip0_339_2391">
<rect width="1531" height="412" fill="white"/>
</clipPath>
</defs>
</svg>
