<svg width="180" height="19" viewBox="0 0 180 19" fill="none" xmlns="http://www.w3.org/2000/svg">
<path d="M18.7502 0H0V18.5626H18.7502V0Z" fill="#00B67A"/>
<path d="M39.0639 0H20.3136V18.5626H39.0639V0Z" fill="#00B67A"/>
<path d="M59.3765 0H40.6263V18.5626H59.3765V0Z" fill="#00B67A"/>
<path d="M79.6892 0H60.9389V18.5626H79.6892V0Z" fill="#00B67A"/>
<path d="M99.9994 0H90.6243V18.5626H99.9994V0Z" fill="#DCDCE6"/>
<path d="M90.6244 0H81.2493V18.5626H90.6244V0Z" fill="#00B67A"/>
<path d="M9.37491 12.5103L12.2265 11.7949L13.4179 15.43L9.37491 12.5103ZM15.9375 7.81165H10.9179L9.37491 3.13232L7.83192 7.81165H2.81232L6.87488 10.7121L5.33189 15.3914L9.39444 12.491L11.8945 10.7121L15.9375 7.81165Z" fill="white"/>
<path d="M29.6876 12.5103L32.5392 11.7949L33.7306 15.43L29.6876 12.5103ZM36.2501 7.81165H31.2305L29.6876 3.13232L28.1446 7.81165H23.125L27.1875 10.7121L25.6445 15.3914L29.7071 12.491L32.2071 10.7121L36.2501 7.81165Z" fill="white"/>
<path d="M50.0012 12.5103L52.8528 11.7949L54.0442 15.43L50.0012 12.5103ZM56.5638 7.81165H51.5442L50.0012 3.13232L48.4582 7.81165H43.4386L47.5012 10.7121L45.9582 15.3914L50.0207 12.491L52.5208 10.7121L56.5638 7.81165Z" fill="white"/>
<path d="M70.3139 12.5103L73.1655 11.7949L74.3569 15.43L70.3139 12.5103ZM76.8764 7.81165H71.8568L70.3139 3.13232L68.7709 7.81165H63.7513L67.8138 10.7121L66.2708 15.3914L70.3334 12.491L72.8334 10.7121L76.8764 7.81165Z" fill="white"/>
<path d="M90.6255 12.5103L93.4771 11.7949L94.6685 15.43L90.6255 12.5103ZM97.1881 7.81165H92.1685L90.6255 3.13232L89.0825 7.81165H84.0629L88.1255 10.7121L86.5825 15.3914L90.6451 12.491L93.1451 10.7121L97.1881 7.81165Z" fill="white"/>
<path d="M126.751 6.56366H133.963V7.90347H131.126V15.4535H129.563V7.90347H126.738L126.751 6.56366ZM133.658 9.01799H134.99V10.2631H135.014C135.066 10.0795 135.15 9.90693 135.264 9.75383C135.386 9.5811 135.534 9.42895 135.704 9.30322C135.874 9.16091 136.067 9.04867 136.275 8.97128C136.475 8.88724 136.689 8.84285 136.905 8.84064C137.071 8.84064 137.19 8.8526 137.25 8.8526C137.312 8.86645 137.376 8.87449 137.44 8.8766V10.2404C137.338 10.2177 137.235 10.2017 137.131 10.1924C137.029 10.1786 136.925 10.1706 136.822 10.1685C136.589 10.1676 136.357 10.2162 136.144 10.3111C135.931 10.4098 135.741 10.5509 135.585 10.7258C135.419 10.931 135.291 11.1639 135.205 11.4136C135.105 11.7195 135.057 12.0399 135.062 12.3616V15.4199H133.636L133.658 9.01799ZM143.979 15.4547H142.576V14.5535H142.552C142.37 14.8832 142.098 15.1546 141.767 15.336C141.448 15.5279 141.082 15.6301 140.709 15.6321C140.375 15.6645 140.038 15.6252 139.72 15.5169C139.402 15.4086 139.111 15.2338 138.867 15.0041C138.446 14.4645 138.243 13.7881 138.296 13.107V9.01682H139.72V12.9644C139.673 13.3916 139.792 13.8206 140.053 14.1628C140.171 14.2852 140.313 14.3808 140.471 14.4429C140.63 14.5049 140.799 14.5321 140.969 14.5223C141.226 14.5302 141.482 14.4815 141.718 14.3797C141.908 14.2978 142.075 14.1717 142.206 14.0118C142.337 13.8482 142.43 13.658 142.48 13.4546C142.539 13.226 142.567 12.9906 142.563 12.7547V9.0204H143.99V15.4571L143.979 15.4547ZM146.404 13.3922C146.411 13.5656 146.458 13.7351 146.541 13.8873C146.625 14.0396 146.742 14.1704 146.885 14.2695C147.185 14.4418 147.526 14.5281 147.872 14.5188C148.023 14.5172 148.174 14.5052 148.324 14.4828C148.489 14.463 148.65 14.4227 148.805 14.363C148.949 14.3111 149.077 14.2207 149.174 14.1017C149.273 13.9781 149.32 13.8207 149.305 13.6631C149.303 13.5783 149.284 13.4949 149.249 13.4175C149.215 13.3401 149.165 13.2704 149.103 13.2124C148.96 13.0917 148.797 12.9957 148.622 12.9284C148.406 12.8508 148.183 12.7915 147.956 12.7511C147.706 12.7031 147.457 12.6444 147.195 12.5857C146.933 12.527 146.672 12.4551 146.422 12.3724C146.182 12.2963 145.957 12.18 145.757 12.0284C145.559 11.8873 145.4 11.7 145.293 11.4831C145.166 11.2293 145.105 10.948 145.115 10.6646C145.101 10.3512 145.193 10.0423 145.377 9.7874C145.548 9.54978 145.771 9.35491 146.031 9.21815C146.306 9.06992 146.603 8.96595 146.91 8.91013C147.213 8.85479 147.519 8.82711 147.826 8.82744C148.146 8.82584 148.466 8.86167 148.777 8.93412C149.07 8.9968 149.348 9.11343 149.598 9.27805C149.844 9.43431 150.049 9.64517 150.199 9.89405C150.371 10.171 150.476 10.4833 150.508 10.8072H149.022C149.005 10.6642 148.954 10.5273 148.873 10.4077C148.793 10.2881 148.685 10.1893 148.558 10.1193C148.295 9.99737 148.007 9.93675 147.717 9.942C147.622 9.942 147.491 9.95397 147.356 9.96595C147.223 9.98498 147.092 10.0167 146.965 10.0606C146.849 10.1065 146.744 10.175 146.656 10.262C146.612 10.3079 146.578 10.3619 146.556 10.4209C146.533 10.4799 146.523 10.5428 146.525 10.6059C146.521 10.6839 146.535 10.7617 146.566 10.8334C146.597 10.9052 146.644 10.9691 146.703 11.0206C146.846 11.1381 147.009 11.2301 147.183 11.2926C147.4 11.3702 147.623 11.4295 147.849 11.47C148.099 11.5179 148.36 11.5766 148.622 11.6354C148.884 11.6941 149.133 11.766 149.383 11.8486C149.624 11.9222 149.85 12.0387 150.049 12.1926C150.245 12.3345 150.409 12.5163 150.53 12.7259C150.655 12.9716 150.716 13.2449 150.708 13.5205C150.719 13.8632 150.628 14.2015 150.446 14.4924C150.269 14.7555 150.038 14.9778 149.768 15.1443C149.479 15.3121 149.166 15.4362 148.841 15.5122C148.509 15.5865 148.17 15.6266 147.83 15.6321C147.449 15.6352 147.069 15.5872 146.7 15.4895C146.377 15.4046 146.071 15.2643 145.796 15.0748C145.546 14.8909 145.342 14.6512 145.201 14.3749C145.047 14.0654 144.964 13.7249 144.961 13.379H146.403V13.391L146.404 13.3922ZM151.101 9.01799H152.182V7.07418H153.609V9.00603H154.893V10.0606H153.609V13.4989C153.61 13.6294 153.618 13.7598 153.633 13.8896C153.645 13.9844 153.673 14.0764 153.716 14.1616C153.766 14.2349 153.836 14.2923 153.918 14.327C154.04 14.3695 154.169 14.3894 154.298 14.3857C154.397 14.3876 154.496 14.3837 154.595 14.3737C154.695 14.3635 154.794 14.3475 154.892 14.3258V15.4283C154.737 15.4523 154.583 15.4643 154.428 15.4763C154.274 15.4964 154.119 15.5045 153.964 15.5003C153.659 15.5096 153.354 15.4737 153.06 15.3936C152.859 15.3353 152.676 15.2297 152.525 15.0856C152.394 14.9418 152.304 14.7661 152.263 14.5762C152.214 14.3423 152.187 14.1045 152.18 13.8656V10.0726H151.098V9.01799H151.101ZM155.892 9.01799H157.236V9.89526H157.26C157.438 9.54067 157.731 9.25647 158.092 9.08872C158.456 8.92004 158.854 8.83486 159.256 8.83944C159.715 8.82473 160.172 8.91791 160.588 9.11147C160.956 9.27712 161.278 9.5292 161.527 9.8461C161.785 10.1684 161.975 10.5394 162.086 10.9367C162.331 11.7795 162.339 12.6732 162.11 13.5205C162.003 13.9066 161.83 14.2714 161.599 14.599C161.371 14.911 161.074 15.1664 160.731 15.3457C160.349 15.5421 159.924 15.6398 159.494 15.6297C159.287 15.6277 159.08 15.6081 158.876 15.5709C158.672 15.5355 158.472 15.4759 158.281 15.3936C158.093 15.3126 157.916 15.2048 157.759 15.0736C157.599 14.9471 157.463 14.7947 157.355 14.623H157.331V17.8359H155.904V9.01682L155.892 9.01799ZM160.874 12.2429C160.876 11.9589 160.835 11.6763 160.754 11.4041C160.685 11.145 160.568 10.9011 160.409 10.685C160.259 10.4796 160.069 10.3064 159.85 10.1757C159.614 10.0452 159.347 9.9799 159.077 9.98632C158.818 9.96984 158.558 10.0174 158.322 10.1249C158.085 10.2323 157.879 10.3963 157.721 10.6023C157.4 11.0948 157.242 11.6753 157.269 12.2621C157.264 12.5668 157.305 12.8705 157.39 13.1633C157.461 13.4223 157.583 13.6643 157.75 13.8752C157.902 14.0752 158.097 14.2389 158.321 14.3545C158.56 14.4769 158.826 14.5378 159.094 14.5319C159.381 14.5403 159.665 14.4707 159.915 14.3306C160.133 14.1994 160.323 14.0263 160.474 13.8213C160.621 13.6031 160.726 13.3592 160.783 13.1022C160.844 12.8195 160.875 12.531 160.875 12.2417L160.874 12.2429ZM163.383 6.56483H164.809V7.90467H163.383V6.56483ZM163.383 9.01919H164.809V15.4559H163.383V9.01919ZM166.081 6.56483H167.508V15.4559H166.081V6.56483ZM171.859 15.6333C171.386 15.6428 170.917 15.5538 170.481 15.372C170.096 15.2092 169.748 14.9712 169.458 14.6721C169.175 14.3598 168.961 13.9926 168.828 13.5936C168.678 13.1545 168.601 12.6937 168.602 12.2298C168.595 11.7693 168.672 11.3114 168.828 10.8779C168.964 10.4802 169.178 10.1135 169.458 9.79936C169.743 9.49407 170.092 9.25515 170.481 9.09951C170.919 8.92365 171.387 8.83528 171.859 8.83944C172.332 8.82955 172.802 8.91813 173.238 9.09951C173.625 9.25815 173.973 9.49666 174.261 9.79936C174.543 10.1117 174.758 10.4789 174.891 10.8779C175.041 11.3129 175.117 11.7698 175.117 12.2298C175.124 12.6942 175.047 13.1562 174.891 13.5936C174.75 13.9892 174.537 14.355 174.261 14.6721C173.976 14.9775 173.626 15.2164 173.238 15.372C172.8 15.5489 172.332 15.6373 171.859 15.6321V15.6333ZM171.859 14.5068C172.146 14.5121 172.429 14.4427 172.68 14.3054C172.908 14.1772 173.103 13.9989 173.251 13.7841C173.404 13.5661 173.517 13.3226 173.584 13.0651C173.727 12.525 173.727 11.9573 173.584 11.4172C173.519 11.1589 173.406 10.9149 173.251 10.6982C173.1 10.4896 172.905 10.3159 172.68 10.1889C172.428 10.0532 172.146 9.98389 171.859 9.98753C171.573 9.98236 171.29 10.0518 171.039 10.1889C170.815 10.3163 170.62 10.4899 170.469 10.6982C170.313 10.9149 170.2 11.1589 170.136 11.4172C169.993 11.9573 169.993 12.525 170.136 13.0651C170.2 13.3234 170.313 13.5673 170.469 13.7841C170.62 13.9962 170.814 14.1739 171.039 14.3054C171.289 14.4458 171.573 14.5151 171.859 14.5055V14.5068ZM175.545 9.01799H176.626V7.07418H178.053V9.00603H179.337V10.0606H178.053V13.4989C178.054 13.6294 178.062 13.7598 178.077 13.8896C178.089 13.9843 178.117 14.0764 178.16 14.1616C178.21 14.2349 178.28 14.2922 178.362 14.327C178.484 14.3696 178.614 14.3895 178.743 14.3857C178.842 14.3876 178.941 14.3837 179.04 14.3737C179.14 14.3635 179.239 14.3475 179.337 14.3258V15.4283C179.182 15.4523 179.028 15.4643 178.873 15.4763C178.719 15.4964 178.564 15.5044 178.409 15.5003C178.104 15.5096 177.799 15.4737 177.505 15.3936C177.304 15.3354 177.121 15.2297 176.97 15.0856C176.839 14.9418 176.749 14.7661 176.708 14.5762C176.66 14.3423 176.632 14.1045 176.625 13.8656V10.0726H175.543V9.01799H175.545Z" fill="black"/>
<path d="M125.085 6.94895H118.558L116.549 1L114.527 6.94895L108 6.93695L113.279 10.6185L111.257 16.5674L116.537 12.8859L121.816 16.5674L119.806 10.6185L125.085 6.94895Z" fill="#00B67A"/>
<path d="M120.258 11.9894L119.806 10.5909L116.549 12.9494L120.258 11.9894Z" fill="#005128"/>
</svg>
